<?xml version="1.0" encoding="utf-8"?>
<!-- Generator: Adobe Illustrator 22.0.0, SVG Export Plug-In . SVG Version: 6.00 Build 0)  -->
<svg version="1.1" id="Layer_1" xmlns="http://www.w3.org/2000/svg" xmlns:xlink="http://www.w3.org/1999/xlink" x="0px" y="0px"
	 viewBox="0 0 358.9 95.2" style="enable-background:new 0 0 358.9 95.2;" xml:space="preserve">
  <style type="text/css">
  	.st0{fill:#1A184F;}
  </style>
  <g>
  	<circle class="st0" cx="95" cy="42.8" r="12.2"/>
  	<path class="st0" d="M0,0h54.6v16.7H19.8v19.1h34.8v16.9H19.8v40.1H0V0z"/>
  	<path class="st0" d="M174.9,81.8l13.9-7.1c0.9,4.7,5.2,7.8,11.3,7.8s9.5-2.3,9.5-6.1c0-5.6-5.1-6-13.4-9.1
  		c-12.7-4.8-19.5-9.3-19.5-18.7c0-11.7,9.9-20.4,26.1-20.4c11.3,0,19.7,4.8,23.3,12.8l-13.2,6.6c-1.4-4.7-5.1-7.1-10.4-7.1
  		s-9,2.5-9,6c0,5.1,5.5,6.4,14.5,9.3c12.7,4.1,18.8,9.3,18.8,19.2c0,11.9-9.9,20.1-26.5,20.1C187.3,95.2,177.9,90,174.9,81.8z"/>
  	<path class="st0" d="M232.3,0h18v58.1l23.1-27.5h21.7l-25,27.5l27.5,34.6h-22.3l-24.9-32.9v32.9h-18L232.3,0z"/>
  	<path class="st0" d="M292.8,61.7c0-20.9,10.5-33.2,28.1-33.2c9.1,0,16.1,4,20.9,12.3V30.6h17.1v62.1h-17.5l0.3-9
  		c-4.9,7.9-11.5,11.4-21.4,11.4C304.2,95.2,292.8,82.4,292.8,61.7z M342.5,61.6c0-11.5-6.3-18.2-15.6-18.2
  		c-9.9,0-15.8,6.9-15.8,18.2s5.8,17.8,15.7,17.8S342.5,72.8,342.5,61.6z"/>
  	<rect x="61.7" y="30.6" class="st0" width="18" height="62.1"/>
  	<path class="st0" d="M141,79.5c-4.1,0.1-8.2-1.5-11.1-4.4l31.1-16l11.1-5.7c-0.2-1.2-0.5-2.4-0.8-3.5
  		c-3.9-13.6-14.9-21.4-30.5-21.4C121.3,28.5,108,42.8,108,62c0,19.8,12.2,33.2,32.7,33.2c13.2,0,22.7-5.2,29.4-16.1l-14.6-7.3
  		C152.3,77,147.5,79.5,141,79.5z M140.8,43.3c5.3,0,9.1,1.7,11.4,5l-26.5,13.1C124.7,50.3,132.7,43.3,140.8,43.3L140.8,43.3z"/>
  </g>
</svg>
